<svg xmlns="http://www.w3.org/2000/svg" xmlns:xlink="http://www.w3.org/1999/xlink" width="500" zoomAndPan="magnify" viewBox="0 0 375 374.999991" height="500" preserveAspectRatio="xMidYMid meet" version="1.0"><defs><g/><clipPath id="1854c1c107"><rect x="0" width="240" y="0" height="281"/></clipPath><clipPath id="e0b19a9648"><rect x="0" width="34" y="0" height="12"/></clipPath><clipPath id="936ee6c7bf"><path d="M 0.121094 4 L 9 4 L 9 10 L 0.121094 10 Z M 0.121094 4 " clip-rule="nonzero"/></clipPath><clipPath id="c5f26eda2f"><rect x="0" width="60" y="0" height="13"/></clipPath><clipPath id="fbd987a2bc"><rect x="0" width="52" y="0" height="12"/></clipPath></defs><g transform="matrix(1, 0, 0, 1, 59, 36)"><g clip-path="url(#1854c1c107)"><g fill="#222222" fill-opacity="1"><g transform="translate(1.732347, 227.794996)"><g><path d="M 21.390625 0 L 21.390625 -180.6875 L 112.765625 -180.6875 C 125.804688 -180.6875 136.953125 -178.164062 146.203125 -173.125 C 155.460938 -168.082031 162.539062 -161.046875 167.4375 -152.015625 C 172.332031 -142.984375 174.78125 -132.441406 174.78125 -120.390625 C 174.78125 -108.328125 172.3125 -97.929688 167.375 -89.203125 C 162.445312 -80.484375 155.351562 -73.789062 146.09375 -69.125 C 136.84375 -64.457031 125.734375 -62.125 112.765625 -62.125 L 60.875 -62.125 L 60.875 0 Z M 60.875 -95.6875 L 106.28125 -95.6875 C 116.664062 -95.6875 124.132812 -97.960938 128.6875 -102.515625 C 133.238281 -107.066406 135.515625 -113.363281 135.515625 -121.40625 C 135.515625 -129.675781 133.179688 -136.03125 128.515625 -140.46875 C 123.847656 -144.90625 116.4375 -147.125 106.28125 -147.125 L 60.875 -147.125 Z M 60.875 -95.6875 "/></g></g></g><g fill="#222222" fill-opacity="1"><g transform="translate(167.34617, 227.794996)"><g><path d="M 23.4375 0 L 23.4375 -41.421875 L 64.515625 -41.421875 L 64.515625 0 Z M 23.4375 0 "/></g></g></g></g></g><g transform="matrix(1, 0, 0, 1, 268, 120)"><g clip-path="url(#e0b19a9648)"><g fill="#222222" fill-opacity="1"><g transform="translate(0.903281, 9.164898)"><g><path d="M 2.546875 -5.71875 C 3.285156 -5.71875 3.820312 -5.554688 4.15625 -5.234375 C 4.5 -4.921875 4.671875 -4.488281 4.671875 -3.9375 C 4.671875 -3.6875 4.628906 -3.445312 4.546875 -3.21875 C 4.472656 -2.988281 4.347656 -2.785156 4.171875 -2.609375 C 4.003906 -2.429688 3.78125 -2.289062 3.5 -2.1875 C 3.21875 -2.082031 2.867188 -2.03125 2.453125 -2.03125 L 1.9375 -2.03125 L 1.9375 0 L 0.71875 0 L 0.71875 -5.71875 Z M 2.484375 -4.71875 L 1.9375 -4.71875 L 1.9375 -3.03125 L 2.328125 -3.03125 C 2.554688 -3.03125 2.753906 -3.054688 2.921875 -3.109375 C 3.085938 -3.171875 3.210938 -3.265625 3.296875 -3.390625 C 3.390625 -3.523438 3.4375 -3.691406 3.4375 -3.890625 C 3.4375 -4.171875 3.359375 -4.378906 3.203125 -4.515625 C 3.046875 -4.648438 2.804688 -4.71875 2.484375 -4.71875 Z M 2.484375 -4.71875 "/></g></g></g><g fill="#222222" fill-opacity="1"><g transform="translate(5.534706, 9.164898)"><g><path d="M 4.21875 0 L 3.796875 -1.359375 L 1.71875 -1.359375 L 1.3125 0 L 0 0 L 2.015625 -5.734375 L 3.5 -5.734375 L 5.515625 0 Z M 3.515625 -2.375 L 3.09375 -3.703125 C 3.070312 -3.796875 3.039062 -3.910156 3 -4.046875 C 2.957031 -4.179688 2.910156 -4.320312 2.859375 -4.46875 C 2.816406 -4.613281 2.785156 -4.738281 2.765625 -4.84375 C 2.734375 -4.738281 2.695312 -4.609375 2.65625 -4.453125 C 2.613281 -4.296875 2.570312 -4.144531 2.53125 -4 C 2.488281 -3.863281 2.457031 -3.765625 2.4375 -3.703125 L 2.03125 -2.375 Z M 3.515625 -2.375 "/></g></g></g><g fill="#222222" fill-opacity="1"><g transform="translate(10.662222, 9.164898)"><g><path d="M 5.78125 0 L 4.25 0 L 1.765625 -4.328125 L 1.734375 -4.328125 C 1.742188 -4.140625 1.75 -3.953125 1.75 -3.765625 C 1.757812 -3.585938 1.769531 -3.410156 1.78125 -3.234375 C 1.789062 -3.054688 1.796875 -2.875 1.796875 -2.6875 L 1.796875 0 L 0.71875 0 L 0.71875 -5.71875 L 2.25 -5.71875 L 4.734375 -1.4375 L 4.75 -1.4375 C 4.75 -1.613281 4.742188 -1.785156 4.734375 -1.953125 C 4.722656 -2.128906 4.710938 -2.304688 4.703125 -2.484375 C 4.703125 -2.660156 4.703125 -2.835938 4.703125 -3.015625 L 4.703125 -5.71875 L 5.78125 -5.71875 Z M 5.78125 0 "/></g></g></g><g fill="#222222" fill-opacity="1"><g transform="translate(16.774111, 9.164898)"><g><path d="M 2.890625 -3.203125 L 5.15625 -3.203125 L 5.15625 -0.25 C 4.851562 -0.144531 4.539062 -0.0625 4.21875 0 C 3.894531 0.0507812 3.53125 0.078125 3.125 0.078125 C 2.550781 0.078125 2.066406 -0.03125 1.671875 -0.25 C 1.273438 -0.476562 0.972656 -0.8125 0.765625 -1.25 C 0.566406 -1.6875 0.46875 -2.222656 0.46875 -2.859375 C 0.46875 -3.460938 0.582031 -3.984375 0.8125 -4.421875 C 1.039062 -4.859375 1.375 -5.195312 1.8125 -5.4375 C 2.257812 -5.675781 2.804688 -5.796875 3.453125 -5.796875 C 3.753906 -5.796875 4.050781 -5.757812 4.34375 -5.6875 C 4.632812 -5.625 4.898438 -5.539062 5.140625 -5.4375 L 4.75 -4.46875 C 4.570312 -4.5625 4.367188 -4.632812 4.140625 -4.6875 C 3.921875 -4.75 3.6875 -4.78125 3.4375 -4.78125 C 3.09375 -4.78125 2.789062 -4.695312 2.53125 -4.53125 C 2.269531 -4.375 2.066406 -4.148438 1.921875 -3.859375 C 1.785156 -3.578125 1.71875 -3.238281 1.71875 -2.84375 C 1.71875 -2.46875 1.765625 -2.132812 1.859375 -1.84375 C 1.960938 -1.5625 2.125 -1.335938 2.34375 -1.171875 C 2.5625 -1.015625 2.847656 -0.9375 3.203125 -0.9375 C 3.367188 -0.9375 3.507812 -0.941406 3.625 -0.953125 C 3.75 -0.972656 3.863281 -0.992188 3.96875 -1.015625 L 3.96875 -2.203125 L 2.890625 -2.203125 Z M 2.890625 -3.203125 "/></g></g></g><g fill="#222222" fill-opacity="1"><g transform="translate(22.175064, 9.164898)"><g><path d="M 2.5 -3.359375 L 3.6875 -5.71875 L 5 -5.71875 L 3.09375 -2.21875 L 3.09375 0 L 1.890625 0 L 1.890625 -2.1875 L 0 -5.71875 L 1.3125 -5.71875 Z M 2.5 -3.359375 "/></g></g></g><g fill="#222222" fill-opacity="1"><g transform="translate(26.775239, 9.164898)"><g><path d="M 5.90625 -2.859375 C 5.90625 -2.421875 5.847656 -2.019531 5.734375 -1.65625 C 5.628906 -1.300781 5.460938 -0.992188 5.234375 -0.734375 C 5.015625 -0.472656 4.734375 -0.269531 4.390625 -0.125 C 4.054688 0.0078125 3.65625 0.078125 3.1875 0.078125 C 2.71875 0.078125 2.3125 0.0078125 1.96875 -0.125 C 1.632812 -0.269531 1.351562 -0.472656 1.125 -0.734375 C 0.90625 -0.992188 0.738281 -1.300781 0.625 -1.65625 C 0.519531 -2.019531 0.46875 -2.425781 0.46875 -2.875 C 0.46875 -3.46875 0.5625 -3.984375 0.75 -4.421875 C 0.945312 -4.859375 1.25 -5.195312 1.65625 -5.4375 C 2.0625 -5.675781 2.570312 -5.796875 3.1875 -5.796875 C 3.8125 -5.796875 4.320312 -5.675781 4.71875 -5.4375 C 5.125 -5.195312 5.421875 -4.851562 5.609375 -4.40625 C 5.804688 -3.96875 5.90625 -3.453125 5.90625 -2.859375 Z M 1.734375 -2.859375 C 1.734375 -2.460938 1.78125 -2.117188 1.875 -1.828125 C 1.976562 -1.546875 2.132812 -1.328125 2.34375 -1.171875 C 2.5625 -1.015625 2.84375 -0.9375 3.1875 -0.9375 C 3.53125 -0.9375 3.804688 -1.015625 4.015625 -1.171875 C 4.234375 -1.328125 4.390625 -1.546875 4.484375 -1.828125 C 4.585938 -2.117188 4.640625 -2.460938 4.640625 -2.859375 C 4.640625 -3.460938 4.523438 -3.9375 4.296875 -4.28125 C 4.078125 -4.625 3.707031 -4.796875 3.1875 -4.796875 C 2.851562 -4.796875 2.578125 -4.71875 2.359375 -4.5625 C 2.140625 -4.40625 1.976562 -4.179688 1.875 -3.890625 C 1.78125 -3.609375 1.734375 -3.265625 1.734375 -2.859375 Z M 1.734375 -2.859375 "/></g></g></g></g></g><g transform="matrix(1, 0, 0, 1, 243, 133)"><g clip-path="url(#c5f26eda2f)"><g clip-path="url(#936ee6c7bf)"><g fill="#222222" fill-opacity="1"><g transform="translate(0.559612, 9.760947)"><g><path d="M 7.734375 -5.71875 L 6.28125 0 L 4.90625 0 L 4.125 -3 C 4.113281 -3.0625 4.09375 -3.148438 4.0625 -3.265625 C 4.039062 -3.378906 4.015625 -3.503906 3.984375 -3.640625 C 3.953125 -3.785156 3.925781 -3.921875 3.90625 -4.046875 C 3.882812 -4.171875 3.867188 -4.269531 3.859375 -4.34375 C 3.859375 -4.269531 3.84375 -4.171875 3.8125 -4.046875 C 3.789062 -3.921875 3.765625 -3.789062 3.734375 -3.65625 C 3.710938 -3.519531 3.6875 -3.390625 3.65625 -3.265625 C 3.632812 -3.148438 3.617188 -3.0625 3.609375 -3 L 2.828125 0 L 1.453125 0 L 0 -5.71875 L 1.1875 -5.71875 L 1.921875 -2.59375 C 1.941406 -2.5 1.960938 -2.382812 1.984375 -2.25 C 2.015625 -2.125 2.046875 -1.988281 2.078125 -1.84375 C 2.109375 -1.707031 2.132812 -1.570312 2.15625 -1.4375 C 2.175781 -1.3125 2.191406 -1.195312 2.203125 -1.09375 C 2.210938 -1.195312 2.226562 -1.3125 2.25 -1.4375 C 2.269531 -1.570312 2.289062 -1.707031 2.3125 -1.84375 C 2.34375 -1.976562 2.367188 -2.101562 2.390625 -2.21875 C 2.421875 -2.34375 2.445312 -2.441406 2.46875 -2.515625 L 3.296875 -5.71875 L 4.4375 -5.71875 L 5.28125 -2.515625 C 5.289062 -2.441406 5.304688 -2.34375 5.328125 -2.21875 C 5.359375 -2.101562 5.382812 -1.976562 5.40625 -1.84375 C 5.4375 -1.707031 5.460938 -1.570312 5.484375 -1.4375 C 5.503906 -1.3125 5.519531 -1.195312 5.53125 -1.09375 C 5.550781 -1.226562 5.578125 -1.390625 5.609375 -1.578125 C 5.640625 -1.765625 5.675781 -1.945312 5.71875 -2.125 C 5.757812 -2.3125 5.789062 -2.46875 5.8125 -2.59375 L 6.546875 -5.71875 Z M 7.734375 -5.71875 "/></g></g></g></g><g fill="#222222" fill-opacity="1"><g transform="translate(7.901965, 9.760947)"><g><path d="M 0.71875 0 L 0.71875 -5.71875 L 1.9375 -5.71875 L 1.9375 0 Z M 0.71875 0 "/></g></g></g><g fill="#222222" fill-opacity="1"><g transform="translate(10.158397, 9.760947)"><g><path d="M 2.921875 0 L 1.71875 0 L 1.71875 -4.703125 L 0.15625 -4.703125 L 0.15625 -5.71875 L 4.46875 -5.71875 L 4.46875 -4.703125 L 2.921875 -4.703125 Z M 2.921875 0 "/></g></g></g><g fill="#222222" fill-opacity="1"><g transform="translate(14.399198, 9.760947)"><g><path d="M 5.40625 0 L 4.1875 0 L 4.1875 -2.46875 L 1.9375 -2.46875 L 1.9375 0 L 0.71875 0 L 0.71875 -5.71875 L 1.9375 -5.71875 L 1.9375 -3.46875 L 4.1875 -3.46875 L 4.1875 -5.71875 L 5.40625 -5.71875 Z M 5.40625 0 "/></g></g></g><g fill="#222222" fill-opacity="1"><g transform="translate(20.128275, 9.760947)"><g/></g></g><g fill="#222222" fill-opacity="1"><g transform="translate(21.814396, 9.760947)"><g><path d="M 4.21875 0 L 3.796875 -1.359375 L 1.71875 -1.359375 L 1.3125 0 L 0 0 L 2.015625 -5.734375 L 3.5 -5.734375 L 5.515625 0 Z M 3.515625 -2.375 L 3.09375 -3.703125 C 3.070312 -3.796875 3.039062 -3.910156 3 -4.046875 C 2.957031 -4.179688 2.910156 -4.320312 2.859375 -4.46875 C 2.816406 -4.613281 2.785156 -4.738281 2.765625 -4.84375 C 2.734375 -4.738281 2.695312 -4.609375 2.65625 -4.453125 C 2.613281 -4.296875 2.570312 -4.144531 2.53125 -4 C 2.488281 -3.863281 2.457031 -3.765625 2.4375 -3.703125 L 2.03125 -2.375 Z M 3.515625 -2.375 "/></g></g></g><g fill="#222222" fill-opacity="1"><g transform="translate(26.941913, 9.760947)"><g><path d="M 0.71875 0 L 0.71875 -5.71875 L 1.9375 -5.71875 L 1.9375 0 Z M 0.71875 0 "/></g></g></g><g fill="#222222" fill-opacity="1"><g transform="translate(29.198345, 9.760947)"><g/></g></g><g fill="#222222" fill-opacity="1"><g transform="translate(30.884466, 9.760947)"><g><path d="M 3.140625 0 L 1.765625 -4.484375 L 1.734375 -4.484375 C 1.734375 -4.378906 1.738281 -4.21875 1.75 -4 C 1.757812 -3.78125 1.769531 -3.550781 1.78125 -3.3125 C 1.789062 -3.070312 1.796875 -2.851562 1.796875 -2.65625 L 1.796875 0 L 0.71875 0 L 0.71875 -5.71875 L 2.375 -5.71875 L 3.71875 -1.34375 L 3.75 -1.34375 L 5.171875 -5.71875 L 6.828125 -5.71875 L 6.828125 0 L 5.703125 0 L 5.703125 -2.703125 C 5.703125 -2.878906 5.703125 -3.082031 5.703125 -3.3125 C 5.710938 -3.550781 5.722656 -3.773438 5.734375 -3.984375 C 5.742188 -4.203125 5.75 -4.363281 5.75 -4.46875 L 5.71875 -4.46875 L 4.25 0 Z M 3.140625 0 "/></g></g></g><g fill="#222222" fill-opacity="1"><g transform="translate(38.035414, 9.760947)"><g><path d="M 5.90625 -2.859375 C 5.90625 -2.421875 5.847656 -2.019531 5.734375 -1.65625 C 5.628906 -1.300781 5.460938 -0.992188 5.234375 -0.734375 C 5.015625 -0.472656 4.734375 -0.269531 4.390625 -0.125 C 4.054688 0.0078125 3.65625 0.078125 3.1875 0.078125 C 2.71875 0.078125 2.3125 0.0078125 1.96875 -0.125 C 1.632812 -0.269531 1.351562 -0.472656 1.125 -0.734375 C 0.90625 -0.992188 0.738281 -1.300781 0.625 -1.65625 C 0.519531 -2.019531 0.46875 -2.425781 0.46875 -2.875 C 0.46875 -3.46875 0.5625 -3.984375 0.75 -4.421875 C 0.945312 -4.859375 1.25 -5.195312 1.65625 -5.4375 C 2.0625 -5.675781 2.570312 -5.796875 3.1875 -5.796875 C 3.8125 -5.796875 4.320312 -5.675781 4.71875 -5.4375 C 5.125 -5.195312 5.421875 -4.851562 5.609375 -4.40625 C 5.804688 -3.96875 5.90625 -3.453125 5.90625 -2.859375 Z M 1.734375 -2.859375 C 1.734375 -2.460938 1.78125 -2.117188 1.875 -1.828125 C 1.976562 -1.546875 2.132812 -1.328125 2.34375 -1.171875 C 2.5625 -1.015625 2.84375 -0.9375 3.1875 -0.9375 C 3.53125 -0.9375 3.804688 -1.015625 4.015625 -1.171875 C 4.234375 -1.328125 4.390625 -1.546875 4.484375 -1.828125 C 4.585938 -2.117188 4.640625 -2.460938 4.640625 -2.859375 C 4.640625 -3.460938 4.523438 -3.9375 4.296875 -4.28125 C 4.078125 -4.625 3.707031 -4.796875 3.1875 -4.796875 C 2.851562 -4.796875 2.578125 -4.71875 2.359375 -4.5625 C 2.140625 -4.40625 1.976562 -4.179688 1.875 -3.890625 C 1.78125 -3.609375 1.734375 -3.265625 1.734375 -2.859375 Z M 1.734375 -2.859375 "/></g></g></g><g fill="#222222" fill-opacity="1"><g transform="translate(44.010584, 9.760947)"><g><path d="M 5.453125 -2.90625 C 5.453125 -2.269531 5.328125 -1.734375 5.078125 -1.296875 C 4.835938 -0.867188 4.484375 -0.546875 4.015625 -0.328125 C 3.554688 -0.109375 3 0 2.34375 0 L 0.71875 0 L 0.71875 -5.71875 L 2.515625 -5.71875 C 3.109375 -5.71875 3.625 -5.609375 4.0625 -5.390625 C 4.507812 -5.179688 4.851562 -4.867188 5.09375 -4.453125 C 5.332031 -4.035156 5.453125 -3.519531 5.453125 -2.90625 Z M 4.203125 -2.875 C 4.203125 -3.300781 4.140625 -3.648438 4.015625 -3.921875 C 3.890625 -4.191406 3.707031 -4.390625 3.46875 -4.515625 C 3.226562 -4.648438 2.929688 -4.71875 2.578125 -4.71875 L 1.9375 -4.71875 L 1.9375 -1 L 2.453125 -1 C 3.046875 -1 3.484375 -1.15625 3.765625 -1.46875 C 4.054688 -1.789062 4.203125 -2.257812 4.203125 -2.875 Z M 4.203125 -2.875 "/></g></g></g><g fill="#222222" fill-opacity="1"><g transform="translate(49.540443, 9.760947)"><g><path d="M 4.015625 0 L 0.71875 0 L 0.71875 -5.71875 L 4.015625 -5.71875 L 4.015625 -4.71875 L 1.9375 -4.71875 L 1.9375 -3.46875 L 3.859375 -3.46875 L 3.859375 -2.46875 L 1.9375 -2.46875 L 1.9375 -1 L 4.015625 -1 Z M 4.015625 0 "/></g></g></g><g fill="#222222" fill-opacity="1"><g transform="translate(53.628901, 9.760947)"><g><path d="M 0.71875 0 L 0.71875 -5.71875 L 1.9375 -5.71875 L 1.9375 -1 L 4.25 -1 L 4.25 0 Z M 0.71875 0 "/></g></g></g></g></g><g transform="matrix(1, 0, 0, 1, 251, 127)"><g clip-path="url(#fbd987a2bc)"><g fill="#222222" fill-opacity="1"><g transform="translate(1.007543, 8.962933)"><g><path d="M 2.921875 0 L 1.71875 0 L 1.71875 -4.703125 L 0.15625 -4.703125 L 0.15625 -5.71875 L 4.46875 -5.71875 L 4.46875 -4.703125 L 2.921875 -4.703125 Z M 2.921875 0 "/></g></g></g><g fill="#222222" fill-opacity="1"><g transform="translate(5.248354, 8.962933)"><g><path d="M 2.390625 -5.71875 C 2.898438 -5.71875 3.320312 -5.65625 3.65625 -5.53125 C 4 -5.40625 4.253906 -5.210938 4.421875 -4.953125 C 4.585938 -4.703125 4.671875 -4.382812 4.671875 -4 C 4.671875 -3.738281 4.617188 -3.507812 4.515625 -3.3125 C 4.421875 -3.125 4.289062 -2.960938 4.125 -2.828125 C 3.96875 -2.691406 3.796875 -2.578125 3.609375 -2.484375 L 5.28125 0 L 3.9375 0 L 2.578125 -2.1875 L 1.9375 -2.1875 L 1.9375 0 L 0.71875 0 L 0.71875 -5.71875 Z M 2.296875 -4.71875 L 1.9375 -4.71875 L 1.9375 -3.171875 L 2.328125 -3.171875 C 2.722656 -3.171875 3.003906 -3.238281 3.171875 -3.375 C 3.347656 -3.507812 3.4375 -3.707031 3.4375 -3.96875 C 3.4375 -4.238281 3.34375 -4.429688 3.15625 -4.546875 C 2.976562 -4.660156 2.691406 -4.71875 2.296875 -4.71875 Z M 2.296875 -4.71875 "/></g></g></g><g fill="#222222" fill-opacity="1"><g transform="translate(10.137601, 8.962933)"><g><path d="M 4.21875 0 L 3.796875 -1.359375 L 1.71875 -1.359375 L 1.3125 0 L 0 0 L 2.015625 -5.734375 L 3.5 -5.734375 L 5.515625 0 Z M 3.515625 -2.375 L 3.09375 -3.703125 C 3.070312 -3.796875 3.039062 -3.910156 3 -4.046875 C 2.957031 -4.179688 2.910156 -4.320312 2.859375 -4.46875 C 2.816406 -4.613281 2.785156 -4.738281 2.765625 -4.84375 C 2.734375 -4.738281 2.695312 -4.609375 2.65625 -4.453125 C 2.613281 -4.296875 2.570312 -4.144531 2.53125 -4 C 2.488281 -3.863281 2.457031 -3.765625 2.4375 -3.703125 L 2.03125 -2.375 Z M 3.515625 -2.375 "/></g></g></g><g fill="#222222" fill-opacity="1"><g transform="translate(15.265129, 8.962933)"><g><path d="M 5.78125 0 L 4.25 0 L 1.765625 -4.328125 L 1.734375 -4.328125 C 1.742188 -4.140625 1.75 -3.953125 1.75 -3.765625 C 1.757812 -3.585938 1.769531 -3.410156 1.78125 -3.234375 C 1.789062 -3.054688 1.796875 -2.875 1.796875 -2.6875 L 1.796875 0 L 0.71875 0 L 0.71875 -5.71875 L 2.25 -5.71875 L 4.734375 -1.4375 L 4.75 -1.4375 C 4.75 -1.613281 4.742188 -1.785156 4.734375 -1.953125 C 4.722656 -2.128906 4.710938 -2.304688 4.703125 -2.484375 C 4.703125 -2.660156 4.703125 -2.835938 4.703125 -3.015625 L 4.703125 -5.71875 L 5.78125 -5.71875 Z M 5.78125 0 "/></g></g></g><g fill="#222222" fill-opacity="1"><g transform="translate(21.377031, 8.962933)"><g><path d="M 4.09375 -1.59375 C 4.09375 -1.25 4.007812 -0.953125 3.84375 -0.703125 C 3.675781 -0.453125 3.4375 -0.257812 3.125 -0.125 C 2.8125 0.0078125 2.429688 0.078125 1.984375 0.078125 C 1.785156 0.078125 1.59375 0.0625 1.40625 0.03125 C 1.21875 0.0078125 1.035156 -0.0234375 0.859375 -0.078125 C 0.691406 -0.128906 0.53125 -0.191406 0.375 -0.265625 L 0.375 -1.390625 C 0.644531 -1.273438 0.925781 -1.164062 1.21875 -1.0625 C 1.507812 -0.96875 1.796875 -0.921875 2.078125 -0.921875 C 2.273438 -0.921875 2.429688 -0.945312 2.546875 -1 C 2.671875 -1.050781 2.757812 -1.125 2.8125 -1.21875 C 2.875 -1.3125 2.90625 -1.414062 2.90625 -1.53125 C 2.90625 -1.675781 2.851562 -1.796875 2.75 -1.890625 C 2.65625 -1.992188 2.523438 -2.085938 2.359375 -2.171875 C 2.191406 -2.265625 2.003906 -2.363281 1.796875 -2.46875 C 1.660156 -2.53125 1.515625 -2.601562 1.359375 -2.6875 C 1.203125 -2.78125 1.050781 -2.890625 0.90625 -3.015625 C 0.769531 -3.148438 0.65625 -3.3125 0.5625 -3.5 C 0.476562 -3.6875 0.4375 -3.910156 0.4375 -4.171875 C 0.4375 -4.515625 0.515625 -4.804688 0.671875 -5.046875 C 0.828125 -5.285156 1.050781 -5.46875 1.34375 -5.59375 C 1.632812 -5.726562 1.976562 -5.796875 2.375 -5.796875 C 2.664062 -5.796875 2.945312 -5.757812 3.21875 -5.6875 C 3.488281 -5.625 3.769531 -5.523438 4.0625 -5.390625 L 3.671875 -4.453125 C 3.410156 -4.554688 3.175781 -4.632812 2.96875 -4.6875 C 2.757812 -4.75 2.546875 -4.78125 2.328125 -4.78125 C 2.179688 -4.78125 2.050781 -4.753906 1.9375 -4.703125 C 1.832031 -4.660156 1.753906 -4.59375 1.703125 -4.5 C 1.648438 -4.414062 1.625 -4.316406 1.625 -4.203125 C 1.625 -4.066406 1.660156 -3.953125 1.734375 -3.859375 C 1.816406 -3.773438 1.9375 -3.6875 2.09375 -3.59375 C 2.257812 -3.507812 2.460938 -3.410156 2.703125 -3.296875 C 2.992188 -3.160156 3.238281 -3.015625 3.4375 -2.859375 C 3.644531 -2.710938 3.804688 -2.535156 3.921875 -2.328125 C 4.035156 -2.128906 4.09375 -1.882812 4.09375 -1.59375 Z M 4.09375 -1.59375 "/></g></g></g><g fill="#222222" fill-opacity="1"><g transform="translate(25.391279, 8.962933)"><g><path d="M 0.71875 0 L 0.71875 -5.71875 L 1.9375 -5.71875 L 1.9375 -1 L 4.25 -1 L 4.25 0 Z M 0.71875 0 "/></g></g></g><g fill="#222222" fill-opacity="1"><g transform="translate(29.518808, 8.962933)"><g><path d="M 4.21875 0 L 3.796875 -1.359375 L 1.71875 -1.359375 L 1.3125 0 L 0 0 L 2.015625 -5.734375 L 3.5 -5.734375 L 5.515625 0 Z M 3.515625 -2.375 L 3.09375 -3.703125 C 3.070312 -3.796875 3.039062 -3.910156 3 -4.046875 C 2.957031 -4.179688 2.910156 -4.320312 2.859375 -4.46875 C 2.816406 -4.613281 2.785156 -4.738281 2.765625 -4.84375 C 2.734375 -4.738281 2.695312 -4.609375 2.65625 -4.453125 C 2.613281 -4.296875 2.570312 -4.144531 2.53125 -4 C 2.488281 -3.863281 2.457031 -3.765625 2.4375 -3.703125 L 2.03125 -2.375 Z M 3.515625 -2.375 "/></g></g></g><g fill="#222222" fill-opacity="1"><g transform="translate(34.646336, 8.962933)"><g><path d="M 2.921875 0 L 1.71875 0 L 1.71875 -4.703125 L 0.15625 -4.703125 L 0.15625 -5.71875 L 4.46875 -5.71875 L 4.46875 -4.703125 L 2.921875 -4.703125 Z M 2.921875 0 "/></g></g></g><g fill="#222222" fill-opacity="1"><g transform="translate(38.887146, 8.962933)"><g><path d="M 5.90625 -2.859375 C 5.90625 -2.421875 5.847656 -2.019531 5.734375 -1.65625 C 5.628906 -1.300781 5.460938 -0.992188 5.234375 -0.734375 C 5.015625 -0.472656 4.734375 -0.269531 4.390625 -0.125 C 4.054688 0.0078125 3.65625 0.078125 3.1875 0.078125 C 2.71875 0.078125 2.3125 0.0078125 1.96875 -0.125 C 1.632812 -0.269531 1.351562 -0.472656 1.125 -0.734375 C 0.90625 -0.992188 0.738281 -1.300781 0.625 -1.65625 C 0.519531 -2.019531 0.46875 -2.425781 0.46875 -2.875 C 0.46875 -3.46875 0.5625 -3.984375 0.75 -4.421875 C 0.945312 -4.859375 1.25 -5.195312 1.65625 -5.4375 C 2.0625 -5.675781 2.570312 -5.796875 3.1875 -5.796875 C 3.8125 -5.796875 4.320312 -5.675781 4.71875 -5.4375 C 5.125 -5.195312 5.421875 -4.851562 5.609375 -4.40625 C 5.804688 -3.96875 5.90625 -3.453125 5.90625 -2.859375 Z M 1.734375 -2.859375 C 1.734375 -2.460938 1.78125 -2.117188 1.875 -1.828125 C 1.976562 -1.546875 2.132812 -1.328125 2.34375 -1.171875 C 2.5625 -1.015625 2.84375 -0.9375 3.1875 -0.9375 C 3.53125 -0.9375 3.804688 -1.015625 4.015625 -1.171875 C 4.234375 -1.328125 4.390625 -1.546875 4.484375 -1.828125 C 4.585938 -2.117188 4.640625 -2.460938 4.640625 -2.859375 C 4.640625 -3.460938 4.523438 -3.9375 4.296875 -4.28125 C 4.078125 -4.625 3.707031 -4.796875 3.1875 -4.796875 C 2.851562 -4.796875 2.578125 -4.71875 2.359375 -4.5625 C 2.140625 -4.40625 1.976562 -4.179688 1.875 -3.890625 C 1.78125 -3.609375 1.734375 -3.265625 1.734375 -2.859375 Z M 1.734375 -2.859375 "/></g></g></g><g fill="#222222" fill-opacity="1"><g transform="translate(44.862329, 8.962933)"><g><path d="M 2.390625 -5.71875 C 2.898438 -5.71875 3.320312 -5.65625 3.65625 -5.53125 C 4 -5.40625 4.253906 -5.210938 4.421875 -4.953125 C 4.585938 -4.703125 4.671875 -4.382812 4.671875 -4 C 4.671875 -3.738281 4.617188 -3.507812 4.515625 -3.3125 C 4.421875 -3.125 4.289062 -2.960938 4.125 -2.828125 C 3.96875 -2.691406 3.796875 -2.578125 3.609375 -2.484375 L 5.28125 0 L 3.9375 0 L 2.578125 -2.1875 L 1.9375 -2.1875 L 1.9375 0 L 0.71875 0 L 0.71875 -5.71875 Z M 2.296875 -4.71875 L 1.9375 -4.71875 L 1.9375 -3.171875 L 2.328125 -3.171875 C 2.722656 -3.171875 3.003906 -3.238281 3.171875 -3.375 C 3.347656 -3.507812 3.4375 -3.707031 3.4375 -3.96875 C 3.4375 -4.238281 3.34375 -4.429688 3.15625 -4.546875 C 2.976562 -4.660156 2.691406 -4.71875 2.296875 -4.71875 Z M 2.296875 -4.71875 "/></g></g></g></g></g></svg>